<svg xmlns="http://www.w3.org/2000/svg" width="480" height="480" viewBox="0 0 480 480">

<defs>
  <filter id="glow" x="-60%" y="-60%" width="220%" height="220%">
    <feGaussianBlur stdDeviation="4" result="blur"/>
    <feMerge>
      <feMergeNode in="blur"/>
      <feMergeNode in="SourceGraphic"/>
    </feMerge>
  </filter>

  <radialGradient id="blueNebula" cx="50%" cy="50%" r="50%">
    <stop offset="0%" stop-color="#23d8ff" stop-opacity="0.16"/>
    <stop offset="58%" stop-color="#23d8ff" stop-opacity="0.045"/>
    <stop offset="100%" stop-color="#23d8ff" stop-opacity="0"/>
  </radialGradient>

  <radialGradient id="greenNebula" cx="50%" cy="50%" r="50%">
    <stop offset="0%" stop-color="#a7ff2f" stop-opacity="0.14"/>
    <stop offset="60%" stop-color="#a7ff2f" stop-opacity="0.04"/>
    <stop offset="100%" stop-color="#a7ff2f" stop-opacity="0"/>
  </radialGradient>

  <pattern id="tile" width="480" height="480" patternUnits="userSpaceOnUse">
    <rect width="480" height="480" fill="#15171b"/>

    <g filter="url(#glow)">
      <circle cx="-410.00" cy="-400.00" r="130.00" opacity="1" fill="url(#blueNebula)"/>
<circle cx="-410.00" cy="80.00" r="130.00" opacity="1" fill="url(#blueNebula)"/>
<circle cx="-410.00" cy="560.00" r="130.00" opacity="1" fill="url(#blueNebula)"/>
<circle cx="70.00" cy="-400.00" r="130.00" opacity="1" fill="url(#blueNebula)"/>
<circle cx="70.00" cy="80.00" r="130.00" opacity="1" fill="url(#blueNebula)"/>
<circle cx="70.00" cy="560.00" r="130.00" opacity="1" fill="url(#blueNebula)"/>
<circle cx="550.00" cy="-400.00" r="130.00" opacity="1" fill="url(#blueNebula)"/>
<circle cx="550.00" cy="80.00" r="130.00" opacity="1" fill="url(#blueNebula)"/>
<circle cx="550.00" cy="560.00" r="130.00" opacity="1" fill="url(#blueNebula)"/>
      <circle cx="-76.00" cy="-110.00" r="150.00" opacity="1" fill="url(#greenNebula)"/>
<circle cx="-76.00" cy="370.00" r="150.00" opacity="1" fill="url(#greenNebula)"/>
<circle cx="-76.00" cy="850.00" r="150.00" opacity="1" fill="url(#greenNebula)"/>
<circle cx="404.00" cy="-110.00" r="150.00" opacity="1" fill="url(#greenNebula)"/>
<circle cx="404.00" cy="370.00" r="150.00" opacity="1" fill="url(#greenNebula)"/>
<circle cx="404.00" cy="850.00" r="150.00" opacity="1" fill="url(#greenNebula)"/>
<circle cx="884.00" cy="-110.00" r="150.00" opacity="1" fill="url(#greenNebula)"/>
<circle cx="884.00" cy="370.00" r="150.00" opacity="1" fill="url(#greenNebula)"/>
<circle cx="884.00" cy="850.00" r="150.00" opacity="1" fill="url(#greenNebula)"/>
      <circle cx="-4.00" cy="-446.00" r="105.00" opacity="1" fill="url(#blueNebula)"/>
<circle cx="-4.00" cy="34.00" r="105.00" opacity="1" fill="url(#blueNebula)"/>
<circle cx="-4.00" cy="514.00" r="105.00" opacity="1" fill="url(#blueNebula)"/>
<circle cx="476.00" cy="-446.00" r="105.00" opacity="1" fill="url(#blueNebula)"/>
<circle cx="476.00" cy="34.00" r="105.00" opacity="1" fill="url(#blueNebula)"/>
<circle cx="476.00" cy="514.00" r="105.00" opacity="1" fill="url(#blueNebula)"/>
<circle cx="956.00" cy="-446.00" r="105.00" opacity="1" fill="url(#blueNebula)"/>
<circle cx="956.00" cy="34.00" r="105.00" opacity="1" fill="url(#blueNebula)"/>
<circle cx="956.00" cy="514.00" r="105.00" opacity="1" fill="url(#blueNebula)"/>
    </g>

    <g stroke="#ffffff" stroke-width="0.55" opacity="0.06">
      <path d="M0 120H480 M0 240H480 M0 360H480"/>
      <path d="M120 0V480 M240 0V480 M360 0V480"/>
    </g>

    <g fill="none" stroke-linecap="round" stroke-linejoin="round" filter="url(#glow)">
      <polyline points="-458.00,-384.00 -384.00,-436.00 -304.00,-398.00 -236.00,-450.00 -136.00,-404.00 -42.00,-442.00" fill="none" stroke="#f4f4f4" stroke-width="1.0" opacity="0.28" stroke-linecap="round" stroke-linejoin="round"/>
<polyline points="-458.00,96.00 -384.00,44.00 -304.00,82.00 -236.00,30.00 -136.00,76.00 -42.00,38.00" fill="none" stroke="#f4f4f4" stroke-width="1.0" opacity="0.28" stroke-linecap="round" stroke-linejoin="round"/>
<polyline points="-458.00,576.00 -384.00,524.00 -304.00,562.00 -236.00,510.00 -136.00,556.00 -42.00,518.00" fill="none" stroke="#f4f4f4" stroke-width="1.0" opacity="0.28" stroke-linecap="round" stroke-linejoin="round"/>
<polyline points="22.00,-384.00 96.00,-436.00 176.00,-398.00 244.00,-450.00 344.00,-404.00 438.00,-442.00" fill="none" stroke="#f4f4f4" stroke-width="1.0" opacity="0.28" stroke-linecap="round" stroke-linejoin="round"/>
<polyline points="22.00,96.00 96.00,44.00 176.00,82.00 244.00,30.00 344.00,76.00 438.00,38.00" fill="none" stroke="#f4f4f4" stroke-width="1.0" opacity="0.28" stroke-linecap="round" stroke-linejoin="round"/>
<polyline points="22.00,576.00 96.00,524.00 176.00,562.00 244.00,510.00 344.00,556.00 438.00,518.00" fill="none" stroke="#f4f4f4" stroke-width="1.0" opacity="0.28" stroke-linecap="round" stroke-linejoin="round"/>
<polyline points="502.00,-384.00 576.00,-436.00 656.00,-398.00 724.00,-450.00 824.00,-404.00 918.00,-442.00" fill="none" stroke="#f4f4f4" stroke-width="1.0" opacity="0.28" stroke-linecap="round" stroke-linejoin="round"/>
<polyline points="502.00,96.00 576.00,44.00 656.00,82.00 724.00,30.00 824.00,76.00 918.00,38.00" fill="none" stroke="#f4f4f4" stroke-width="1.0" opacity="0.28" stroke-linecap="round" stroke-linejoin="round"/>
<polyline points="502.00,576.00 576.00,524.00 656.00,562.00 724.00,510.00 824.00,556.00 918.00,518.00" fill="none" stroke="#f4f4f4" stroke-width="1.0" opacity="0.28" stroke-linecap="round" stroke-linejoin="round"/><polyline points="-444.00,-194.00 -366.00,-242.00 -292.00,-210.00 -206.00,-264.00 -124.00,-222.00 -30.00,-276.00" fill="none" stroke="#f4f4f4" stroke-width="1.0" opacity="0.24" stroke-linecap="round" stroke-linejoin="round"/>
<polyline points="-444.00,286.00 -366.00,238.00 -292.00,270.00 -206.00,216.00 -124.00,258.00 -30.00,204.00" fill="none" stroke="#f4f4f4" stroke-width="1.0" opacity="0.24" stroke-linecap="round" stroke-linejoin="round"/>
<polyline points="-444.00,766.00 -366.00,718.00 -292.00,750.00 -206.00,696.00 -124.00,738.00 -30.00,684.00" fill="none" stroke="#f4f4f4" stroke-width="1.0" opacity="0.24" stroke-linecap="round" stroke-linejoin="round"/>
<polyline points="36.00,-194.00 114.00,-242.00 188.00,-210.00 274.00,-264.00 356.00,-222.00 450.00,-276.00" fill="none" stroke="#f4f4f4" stroke-width="1.0" opacity="0.24" stroke-linecap="round" stroke-linejoin="round"/>
<polyline points="36.00,286.00 114.00,238.00 188.00,270.00 274.00,216.00 356.00,258.00 450.00,204.00" fill="none" stroke="#f4f4f4" stroke-width="1.0" opacity="0.24" stroke-linecap="round" stroke-linejoin="round"/>
<polyline points="36.00,766.00 114.00,718.00 188.00,750.00 274.00,696.00 356.00,738.00 450.00,684.00" fill="none" stroke="#f4f4f4" stroke-width="1.0" opacity="0.24" stroke-linecap="round" stroke-linejoin="round"/>
<polyline points="516.00,-194.00 594.00,-242.00 668.00,-210.00 754.00,-264.00 836.00,-222.00 930.00,-276.00" fill="none" stroke="#f4f4f4" stroke-width="1.0" opacity="0.24" stroke-linecap="round" stroke-linejoin="round"/>
<polyline points="516.00,286.00 594.00,238.00 668.00,270.00 754.00,216.00 836.00,258.00 930.00,204.00" fill="none" stroke="#f4f4f4" stroke-width="1.0" opacity="0.24" stroke-linecap="round" stroke-linejoin="round"/>
<polyline points="516.00,766.00 594.00,718.00 668.00,750.00 754.00,696.00 836.00,738.00 930.00,684.00" fill="none" stroke="#f4f4f4" stroke-width="1.0" opacity="0.24" stroke-linecap="round" stroke-linejoin="round"/><line x1="-480.00" y1="-320.00" x2="0.00" y2="-480.00" stroke="#f4f4f4" stroke-width="0.75" opacity="0.14" stroke-linecap="round"/>
<line x1="-480.00" y1="160.00" x2="0.00" y2="0.00" stroke="#f4f4f4" stroke-width="0.75" opacity="0.14" stroke-linecap="round"/>
<line x1="-480.00" y1="640.00" x2="0.00" y2="480.00" stroke="#f4f4f4" stroke-width="0.75" opacity="0.14" stroke-linecap="round"/>
<line x1="0.00" y1="-320.00" x2="480.00" y2="-480.00" stroke="#f4f4f4" stroke-width="0.75" opacity="0.14" stroke-linecap="round"/>
<line x1="0.00" y1="160.00" x2="480.00" y2="0.00" stroke="#f4f4f4" stroke-width="0.75" opacity="0.14" stroke-linecap="round"/>
<line x1="0.00" y1="640.00" x2="480.00" y2="480.00" stroke="#f4f4f4" stroke-width="0.75" opacity="0.14" stroke-linecap="round"/>
<line x1="480.00" y1="-320.00" x2="960.00" y2="-480.00" stroke="#f4f4f4" stroke-width="0.75" opacity="0.14" stroke-linecap="round"/>
<line x1="480.00" y1="160.00" x2="960.00" y2="0.00" stroke="#f4f4f4" stroke-width="0.75" opacity="0.14" stroke-linecap="round"/>
<line x1="480.00" y1="640.00" x2="960.00" y2="480.00" stroke="#f4f4f4" stroke-width="0.75" opacity="0.14" stroke-linecap="round"/><line x1="-480.00" y1="-120.00" x2="0.00" y2="-280.00" stroke="#f4f4f4" stroke-width="0.75" opacity="0.14" stroke-linecap="round"/>
<line x1="-480.00" y1="360.00" x2="0.00" y2="200.00" stroke="#f4f4f4" stroke-width="0.75" opacity="0.14" stroke-linecap="round"/>
<line x1="-480.00" y1="840.00" x2="0.00" y2="680.00" stroke="#f4f4f4" stroke-width="0.75" opacity="0.14" stroke-linecap="round"/>
<line x1="0.00" y1="-120.00" x2="480.00" y2="-280.00" stroke="#f4f4f4" stroke-width="0.75" opacity="0.14" stroke-linecap="round"/>
<line x1="0.00" y1="360.00" x2="480.00" y2="200.00" stroke="#f4f4f4" stroke-width="0.75" opacity="0.14" stroke-linecap="round"/>
<line x1="0.00" y1="840.00" x2="480.00" y2="680.00" stroke="#f4f4f4" stroke-width="0.75" opacity="0.14" stroke-linecap="round"/>
<line x1="480.00" y1="-120.00" x2="960.00" y2="-280.00" stroke="#f4f4f4" stroke-width="0.75" opacity="0.14" stroke-linecap="round"/>
<line x1="480.00" y1="360.00" x2="960.00" y2="200.00" stroke="#f4f4f4" stroke-width="0.75" opacity="0.14" stroke-linecap="round"/>
<line x1="480.00" y1="840.00" x2="960.00" y2="680.00" stroke="#f4f4f4" stroke-width="0.75" opacity="0.14" stroke-linecap="round"/><circle cx="-330.00" cy="-300.00" r="68.00" opacity="0.16" fill="none" stroke="#f4f4f4" stroke-width="0.8"/>
<circle cx="-330.00" cy="180.00" r="68.00" opacity="0.16" fill="none" stroke="#f4f4f4" stroke-width="0.8"/>
<circle cx="-330.00" cy="660.00" r="68.00" opacity="0.16" fill="none" stroke="#f4f4f4" stroke-width="0.8"/>
<circle cx="150.00" cy="-300.00" r="68.00" opacity="0.16" fill="none" stroke="#f4f4f4" stroke-width="0.8"/>
<circle cx="150.00" cy="180.00" r="68.00" opacity="0.16" fill="none" stroke="#f4f4f4" stroke-width="0.8"/>
<circle cx="150.00" cy="660.00" r="68.00" opacity="0.16" fill="none" stroke="#f4f4f4" stroke-width="0.8"/>
<circle cx="630.00" cy="-300.00" r="68.00" opacity="0.16" fill="none" stroke="#f4f4f4" stroke-width="0.8"/>
<circle cx="630.00" cy="180.00" r="68.00" opacity="0.16" fill="none" stroke="#f4f4f4" stroke-width="0.8"/>
<circle cx="630.00" cy="660.00" r="68.00" opacity="0.16" fill="none" stroke="#f4f4f4" stroke-width="0.8"/><circle cx="-120.00" cy="-150.00" r="92.00" opacity="0.14" fill="none" stroke="#f4f4f4" stroke-width="0.8"/>
<circle cx="-120.00" cy="330.00" r="92.00" opacity="0.14" fill="none" stroke="#f4f4f4" stroke-width="0.8"/>
<circle cx="-120.00" cy="810.00" r="92.00" opacity="0.14" fill="none" stroke="#f4f4f4" stroke-width="0.8"/>
<circle cx="360.00" cy="-150.00" r="92.00" opacity="0.14" fill="none" stroke="#f4f4f4" stroke-width="0.8"/>
<circle cx="360.00" cy="330.00" r="92.00" opacity="0.14" fill="none" stroke="#f4f4f4" stroke-width="0.8"/>
<circle cx="360.00" cy="810.00" r="92.00" opacity="0.14" fill="none" stroke="#f4f4f4" stroke-width="0.8"/>
<circle cx="840.00" cy="-150.00" r="92.00" opacity="0.14" fill="none" stroke="#f4f4f4" stroke-width="0.8"/>
<circle cx="840.00" cy="330.00" r="92.00" opacity="0.14" fill="none" stroke="#f4f4f4" stroke-width="0.8"/>
<circle cx="840.00" cy="810.00" r="92.00" opacity="0.14" fill="none" stroke="#f4f4f4" stroke-width="0.8"/>
      <polyline points="-422.00,-80.00 -352.00,-134.00 -274.00,-88.00 -186.00,-146.00 -82.00,-98.00 -2.00,-162.00" fill="none" stroke="#a7ff2f" stroke-width="1.1" opacity="0.38" stroke-linecap="round" stroke-linejoin="round"/>
<polyline points="-422.00,400.00 -352.00,346.00 -274.00,392.00 -186.00,334.00 -82.00,382.00 -2.00,318.00" fill="none" stroke="#a7ff2f" stroke-width="1.1" opacity="0.38" stroke-linecap="round" stroke-linejoin="round"/>
<polyline points="-422.00,880.00 -352.00,826.00 -274.00,872.00 -186.00,814.00 -82.00,862.00 -2.00,798.00" fill="none" stroke="#a7ff2f" stroke-width="1.1" opacity="0.38" stroke-linecap="round" stroke-linejoin="round"/>
<polyline points="58.00,-80.00 128.00,-134.00 206.00,-88.00 294.00,-146.00 398.00,-98.00 478.00,-162.00" fill="none" stroke="#a7ff2f" stroke-width="1.1" opacity="0.38" stroke-linecap="round" stroke-linejoin="round"/>
<polyline points="58.00,400.00 128.00,346.00 206.00,392.00 294.00,334.00 398.00,382.00 478.00,318.00" fill="none" stroke="#a7ff2f" stroke-width="1.1" opacity="0.38" stroke-linecap="round" stroke-linejoin="round"/>
<polyline points="58.00,880.00 128.00,826.00 206.00,872.00 294.00,814.00 398.00,862.00 478.00,798.00" fill="none" stroke="#a7ff2f" stroke-width="1.1" opacity="0.38" stroke-linecap="round" stroke-linejoin="round"/>
<polyline points="538.00,-80.00 608.00,-134.00 686.00,-88.00 774.00,-146.00 878.00,-98.00 958.00,-162.00" fill="none" stroke="#a7ff2f" stroke-width="1.1" opacity="0.38" stroke-linecap="round" stroke-linejoin="round"/>
<polyline points="538.00,400.00 608.00,346.00 686.00,392.00 774.00,334.00 878.00,382.00 958.00,318.00" fill="none" stroke="#a7ff2f" stroke-width="1.1" opacity="0.38" stroke-linecap="round" stroke-linejoin="round"/>
<polyline points="538.00,880.00 608.00,826.00 686.00,872.00 774.00,814.00 878.00,862.00 958.00,798.00" fill="none" stroke="#a7ff2f" stroke-width="1.1" opacity="0.38" stroke-linecap="round" stroke-linejoin="round"/><line x1="-480.00" y1="-60.00" x2="0.00" y2="-380.00" stroke="#a7ff2f" stroke-width="0.85" opacity="0.2" stroke-linecap="round"/>
<line x1="-480.00" y1="420.00" x2="0.00" y2="100.00" stroke="#a7ff2f" stroke-width="0.85" opacity="0.2" stroke-linecap="round"/>
<line x1="-480.00" y1="900.00" x2="0.00" y2="580.00" stroke="#a7ff2f" stroke-width="0.85" opacity="0.2" stroke-linecap="round"/>
<line x1="0.00" y1="-60.00" x2="480.00" y2="-380.00" stroke="#a7ff2f" stroke-width="0.85" opacity="0.2" stroke-linecap="round"/>
<line x1="0.00" y1="420.00" x2="480.00" y2="100.00" stroke="#a7ff2f" stroke-width="0.85" opacity="0.2" stroke-linecap="round"/>
<line x1="0.00" y1="900.00" x2="480.00" y2="580.00" stroke="#a7ff2f" stroke-width="0.85" opacity="0.2" stroke-linecap="round"/>
<line x1="480.00" y1="-60.00" x2="960.00" y2="-380.00" stroke="#a7ff2f" stroke-width="0.85" opacity="0.2" stroke-linecap="round"/>
<line x1="480.00" y1="420.00" x2="960.00" y2="100.00" stroke="#a7ff2f" stroke-width="0.85" opacity="0.2" stroke-linecap="round"/>
<line x1="480.00" y1="900.00" x2="960.00" y2="580.00" stroke="#a7ff2f" stroke-width="0.85" opacity="0.2" stroke-linecap="round"/><circle cx="-125.00" cy="-346.00" r="42.00" opacity="0.26" fill="none" stroke="#a7ff2f" stroke-width="1.0"/>
<circle cx="-125.00" cy="134.00" r="42.00" opacity="0.26" fill="none" stroke="#a7ff2f" stroke-width="1.0"/>
<circle cx="-125.00" cy="614.00" r="42.00" opacity="0.26" fill="none" stroke="#a7ff2f" stroke-width="1.0"/>
<circle cx="355.00" cy="-346.00" r="42.00" opacity="0.26" fill="none" stroke="#a7ff2f" stroke-width="1.0"/>
<circle cx="355.00" cy="134.00" r="42.00" opacity="0.26" fill="none" stroke="#a7ff2f" stroke-width="1.0"/>
<circle cx="355.00" cy="614.00" r="42.00" opacity="0.26" fill="none" stroke="#a7ff2f" stroke-width="1.0"/>
<circle cx="835.00" cy="-346.00" r="42.00" opacity="0.26" fill="none" stroke="#a7ff2f" stroke-width="1.0"/>
<circle cx="835.00" cy="134.00" r="42.00" opacity="0.26" fill="none" stroke="#a7ff2f" stroke-width="1.0"/>
<circle cx="835.00" cy="614.00" r="42.00" opacity="0.26" fill="none" stroke="#a7ff2f" stroke-width="1.0"/>
      <polyline points="-452.00,-278.00 -368.00,-334.00 -282.00,-284.00 -194.00,-344.00 -100.00,-302.00 -22.00,-358.00" fill="none" stroke="#23d8ff" stroke-width="1.1" opacity="0.38" stroke-linecap="round" stroke-linejoin="round"/>
<polyline points="-452.00,202.00 -368.00,146.00 -282.00,196.00 -194.00,136.00 -100.00,178.00 -22.00,122.00" fill="none" stroke="#23d8ff" stroke-width="1.1" opacity="0.38" stroke-linecap="round" stroke-linejoin="round"/>
<polyline points="-452.00,682.00 -368.00,626.00 -282.00,676.00 -194.00,616.00 -100.00,658.00 -22.00,602.00" fill="none" stroke="#23d8ff" stroke-width="1.1" opacity="0.38" stroke-linecap="round" stroke-linejoin="round"/>
<polyline points="28.00,-278.00 112.00,-334.00 198.00,-284.00 286.00,-344.00 380.00,-302.00 458.00,-358.00" fill="none" stroke="#23d8ff" stroke-width="1.1" opacity="0.38" stroke-linecap="round" stroke-linejoin="round"/>
<polyline points="28.00,202.00 112.00,146.00 198.00,196.00 286.00,136.00 380.00,178.00 458.00,122.00" fill="none" stroke="#23d8ff" stroke-width="1.1" opacity="0.38" stroke-linecap="round" stroke-linejoin="round"/>
<polyline points="28.00,682.00 112.00,626.00 198.00,676.00 286.00,616.00 380.00,658.00 458.00,602.00" fill="none" stroke="#23d8ff" stroke-width="1.1" opacity="0.38" stroke-linecap="round" stroke-linejoin="round"/>
<polyline points="508.00,-278.00 592.00,-334.00 678.00,-284.00 766.00,-344.00 860.00,-302.00 938.00,-358.00" fill="none" stroke="#23d8ff" stroke-width="1.1" opacity="0.38" stroke-linecap="round" stroke-linejoin="round"/>
<polyline points="508.00,202.00 592.00,146.00 678.00,196.00 766.00,136.00 860.00,178.00 938.00,122.00" fill="none" stroke="#23d8ff" stroke-width="1.1" opacity="0.38" stroke-linecap="round" stroke-linejoin="round"/>
<polyline points="508.00,682.00 592.00,626.00 678.00,676.00 766.00,616.00 860.00,658.00 938.00,602.00" fill="none" stroke="#23d8ff" stroke-width="1.1" opacity="0.38" stroke-linecap="round" stroke-linejoin="round"/><line x1="-480.00" y1="-416.00" x2="0.00" y2="-96.00" stroke="#23d8ff" stroke-width="0.85" opacity="0.18" stroke-linecap="round"/>
<line x1="-480.00" y1="64.00" x2="0.00" y2="384.00" stroke="#23d8ff" stroke-width="0.85" opacity="0.18" stroke-linecap="round"/>
<line x1="-480.00" y1="544.00" x2="0.00" y2="864.00" stroke="#23d8ff" stroke-width="0.85" opacity="0.18" stroke-linecap="round"/>
<line x1="0.00" y1="-416.00" x2="480.00" y2="-96.00" stroke="#23d8ff" stroke-width="0.85" opacity="0.18" stroke-linecap="round"/>
<line x1="0.00" y1="64.00" x2="480.00" y2="384.00" stroke="#23d8ff" stroke-width="0.85" opacity="0.18" stroke-linecap="round"/>
<line x1="0.00" y1="544.00" x2="480.00" y2="864.00" stroke="#23d8ff" stroke-width="0.85" opacity="0.18" stroke-linecap="round"/>
<line x1="480.00" y1="-416.00" x2="960.00" y2="-96.00" stroke="#23d8ff" stroke-width="0.85" opacity="0.18" stroke-linecap="round"/>
<line x1="480.00" y1="64.00" x2="960.00" y2="384.00" stroke="#23d8ff" stroke-width="0.85" opacity="0.18" stroke-linecap="round"/>
<line x1="480.00" y1="544.00" x2="960.00" y2="864.00" stroke="#23d8ff" stroke-width="0.85" opacity="0.18" stroke-linecap="round"/><circle cx="-364.00" cy="-136.00" r="46.00" opacity="0.26" fill="none" stroke="#23d8ff" stroke-width="1.0"/>
<circle cx="-364.00" cy="344.00" r="46.00" opacity="0.26" fill="none" stroke="#23d8ff" stroke-width="1.0"/>
<circle cx="-364.00" cy="824.00" r="46.00" opacity="0.26" fill="none" stroke="#23d8ff" stroke-width="1.0"/>
<circle cx="116.00" cy="-136.00" r="46.00" opacity="0.26" fill="none" stroke="#23d8ff" stroke-width="1.0"/>
<circle cx="116.00" cy="344.00" r="46.00" opacity="0.26" fill="none" stroke="#23d8ff" stroke-width="1.0"/>
<circle cx="116.00" cy="824.00" r="46.00" opacity="0.26" fill="none" stroke="#23d8ff" stroke-width="1.0"/>
<circle cx="596.00" cy="-136.00" r="46.00" opacity="0.26" fill="none" stroke="#23d8ff" stroke-width="1.0"/>
<circle cx="596.00" cy="344.00" r="46.00" opacity="0.26" fill="none" stroke="#23d8ff" stroke-width="1.0"/>
<circle cx="596.00" cy="824.00" r="46.00" opacity="0.26" fill="none" stroke="#23d8ff" stroke-width="1.0"/>
    </g>

    <g fill="none">
      <path d="M72 240 L120 192 L168 240 L120 288 Z" stroke="#f4f4f4" stroke-width="0.8" opacity="0.18"/>
      <path d="M312 92 L362 62 L414 94 L382 142 L326 138 Z" stroke="#23d8ff" stroke-width="0.8" opacity="0.20"/>
      <path d="M300 350 L352 312 L410 338 L394 406 L326 412 Z" stroke="#a7ff2f" stroke-width="0.8" opacity="0.18"/>
    </g>

    <g filter="url(#glow)">
      <circle cx="-458.00" cy="-384.00" r="2.20" opacity="0.58" fill="#f4f4f4"/>
<circle cx="-458.00" cy="96.00" r="2.20" opacity="0.58" fill="#f4f4f4"/>
<circle cx="-458.00" cy="576.00" r="2.20" opacity="0.58" fill="#f4f4f4"/>
<circle cx="22.00" cy="-384.00" r="2.20" opacity="0.58" fill="#f4f4f4"/>
<circle cx="22.00" cy="96.00" r="2.20" opacity="0.58" fill="#f4f4f4"/>
<circle cx="22.00" cy="576.00" r="2.20" opacity="0.58" fill="#f4f4f4"/>
<circle cx="502.00" cy="-384.00" r="2.20" opacity="0.58" fill="#f4f4f4"/>
<circle cx="502.00" cy="96.00" r="2.20" opacity="0.58" fill="#f4f4f4"/>
<circle cx="502.00" cy="576.00" r="2.20" opacity="0.58" fill="#f4f4f4"/><circle cx="-384.00" cy="-436.00" r="1.60" opacity="0.58" fill="#f4f4f4"/>
<circle cx="-384.00" cy="44.00" r="1.60" opacity="0.58" fill="#f4f4f4"/>
<circle cx="-384.00" cy="524.00" r="1.60" opacity="0.58" fill="#f4f4f4"/>
<circle cx="96.00" cy="-436.00" r="1.60" opacity="0.58" fill="#f4f4f4"/>
<circle cx="96.00" cy="44.00" r="1.60" opacity="0.58" fill="#f4f4f4"/>
<circle cx="96.00" cy="524.00" r="1.60" opacity="0.58" fill="#f4f4f4"/>
<circle cx="576.00" cy="-436.00" r="1.60" opacity="0.58" fill="#f4f4f4"/>
<circle cx="576.00" cy="44.00" r="1.60" opacity="0.58" fill="#f4f4f4"/>
<circle cx="576.00" cy="524.00" r="1.60" opacity="0.58" fill="#f4f4f4"/><circle cx="-304.00" cy="-398.00" r="1.60" opacity="0.58" fill="#f4f4f4"/>
<circle cx="-304.00" cy="82.00" r="1.60" opacity="0.58" fill="#f4f4f4"/>
<circle cx="-304.00" cy="562.00" r="1.60" opacity="0.58" fill="#f4f4f4"/>
<circle cx="176.00" cy="-398.00" r="1.60" opacity="0.58" fill="#f4f4f4"/>
<circle cx="176.00" cy="82.00" r="1.60" opacity="0.58" fill="#f4f4f4"/>
<circle cx="176.00" cy="562.00" r="1.60" opacity="0.58" fill="#f4f4f4"/>
<circle cx="656.00" cy="-398.00" r="1.60" opacity="0.58" fill="#f4f4f4"/>
<circle cx="656.00" cy="82.00" r="1.60" opacity="0.58" fill="#f4f4f4"/>
<circle cx="656.00" cy="562.00" r="1.60" opacity="0.58" fill="#f4f4f4"/><circle cx="-236.00" cy="-450.00" r="2.20" opacity="0.58" fill="#f4f4f4"/>
<circle cx="-236.00" cy="30.00" r="2.20" opacity="0.58" fill="#f4f4f4"/>
<circle cx="-236.00" cy="510.00" r="2.20" opacity="0.58" fill="#f4f4f4"/>
<circle cx="244.00" cy="-450.00" r="2.20" opacity="0.58" fill="#f4f4f4"/>
<circle cx="244.00" cy="30.00" r="2.20" opacity="0.58" fill="#f4f4f4"/>
<circle cx="244.00" cy="510.00" r="2.20" opacity="0.58" fill="#f4f4f4"/>
<circle cx="724.00" cy="-450.00" r="2.20" opacity="0.58" fill="#f4f4f4"/>
<circle cx="724.00" cy="30.00" r="2.20" opacity="0.58" fill="#f4f4f4"/>
<circle cx="724.00" cy="510.00" r="2.20" opacity="0.58" fill="#f4f4f4"/><circle cx="-136.00" cy="-404.00" r="1.60" opacity="0.58" fill="#f4f4f4"/>
<circle cx="-136.00" cy="76.00" r="1.60" opacity="0.58" fill="#f4f4f4"/>
<circle cx="-136.00" cy="556.00" r="1.60" opacity="0.58" fill="#f4f4f4"/>
<circle cx="344.00" cy="-404.00" r="1.60" opacity="0.58" fill="#f4f4f4"/>
<circle cx="344.00" cy="76.00" r="1.60" opacity="0.58" fill="#f4f4f4"/>
<circle cx="344.00" cy="556.00" r="1.60" opacity="0.58" fill="#f4f4f4"/>
<circle cx="824.00" cy="-404.00" r="1.60" opacity="0.58" fill="#f4f4f4"/>
<circle cx="824.00" cy="76.00" r="1.60" opacity="0.58" fill="#f4f4f4"/>
<circle cx="824.00" cy="556.00" r="1.60" opacity="0.58" fill="#f4f4f4"/><circle cx="-42.00" cy="-442.00" r="1.60" opacity="0.58" fill="#f4f4f4"/>
<circle cx="-42.00" cy="38.00" r="1.60" opacity="0.58" fill="#f4f4f4"/>
<circle cx="-42.00" cy="518.00" r="1.60" opacity="0.58" fill="#f4f4f4"/>
<circle cx="438.00" cy="-442.00" r="1.60" opacity="0.58" fill="#f4f4f4"/>
<circle cx="438.00" cy="38.00" r="1.60" opacity="0.58" fill="#f4f4f4"/>
<circle cx="438.00" cy="518.00" r="1.60" opacity="0.58" fill="#f4f4f4"/>
<circle cx="918.00" cy="-442.00" r="1.60" opacity="0.58" fill="#f4f4f4"/>
<circle cx="918.00" cy="38.00" r="1.60" opacity="0.58" fill="#f4f4f4"/>
<circle cx="918.00" cy="518.00" r="1.60" opacity="0.58" fill="#f4f4f4"/><circle cx="-422.00" cy="-80.00" r="2.20" opacity="0.58" fill="#a7ff2f"/>
<circle cx="-422.00" cy="400.00" r="2.20" opacity="0.58" fill="#a7ff2f"/>
<circle cx="-422.00" cy="880.00" r="2.20" opacity="0.58" fill="#a7ff2f"/>
<circle cx="58.00" cy="-80.00" r="2.20" opacity="0.58" fill="#a7ff2f"/>
<circle cx="58.00" cy="400.00" r="2.20" opacity="0.58" fill="#a7ff2f"/>
<circle cx="58.00" cy="880.00" r="2.20" opacity="0.58" fill="#a7ff2f"/>
<circle cx="538.00" cy="-80.00" r="2.20" opacity="0.58" fill="#a7ff2f"/>
<circle cx="538.00" cy="400.00" r="2.20" opacity="0.58" fill="#a7ff2f"/>
<circle cx="538.00" cy="880.00" r="2.20" opacity="0.58" fill="#a7ff2f"/><circle cx="-352.00" cy="-134.00" r="1.60" opacity="0.58" fill="#a7ff2f"/>
<circle cx="-352.00" cy="346.00" r="1.60" opacity="0.58" fill="#a7ff2f"/>
<circle cx="-352.00" cy="826.00" r="1.60" opacity="0.58" fill="#a7ff2f"/>
<circle cx="128.00" cy="-134.00" r="1.60" opacity="0.58" fill="#a7ff2f"/>
<circle cx="128.00" cy="346.00" r="1.60" opacity="0.58" fill="#a7ff2f"/>
<circle cx="128.00" cy="826.00" r="1.60" opacity="0.58" fill="#a7ff2f"/>
<circle cx="608.00" cy="-134.00" r="1.60" opacity="0.58" fill="#a7ff2f"/>
<circle cx="608.00" cy="346.00" r="1.60" opacity="0.58" fill="#a7ff2f"/>
<circle cx="608.00" cy="826.00" r="1.60" opacity="0.58" fill="#a7ff2f"/><circle cx="-274.00" cy="-88.00" r="1.60" opacity="0.58" fill="#a7ff2f"/>
<circle cx="-274.00" cy="392.00" r="1.60" opacity="0.58" fill="#a7ff2f"/>
<circle cx="-274.00" cy="872.00" r="1.60" opacity="0.58" fill="#a7ff2f"/>
<circle cx="206.00" cy="-88.00" r="1.60" opacity="0.58" fill="#a7ff2f"/>
<circle cx="206.00" cy="392.00" r="1.60" opacity="0.58" fill="#a7ff2f"/>
<circle cx="206.00" cy="872.00" r="1.60" opacity="0.58" fill="#a7ff2f"/>
<circle cx="686.00" cy="-88.00" r="1.60" opacity="0.58" fill="#a7ff2f"/>
<circle cx="686.00" cy="392.00" r="1.60" opacity="0.58" fill="#a7ff2f"/>
<circle cx="686.00" cy="872.00" r="1.60" opacity="0.58" fill="#a7ff2f"/><circle cx="-186.00" cy="-146.00" r="2.20" opacity="0.58" fill="#a7ff2f"/>
<circle cx="-186.00" cy="334.00" r="2.20" opacity="0.58" fill="#a7ff2f"/>
<circle cx="-186.00" cy="814.00" r="2.20" opacity="0.58" fill="#a7ff2f"/>
<circle cx="294.00" cy="-146.00" r="2.20" opacity="0.58" fill="#a7ff2f"/>
<circle cx="294.00" cy="334.00" r="2.20" opacity="0.58" fill="#a7ff2f"/>
<circle cx="294.00" cy="814.00" r="2.20" opacity="0.58" fill="#a7ff2f"/>
<circle cx="774.00" cy="-146.00" r="2.20" opacity="0.58" fill="#a7ff2f"/>
<circle cx="774.00" cy="334.00" r="2.20" opacity="0.58" fill="#a7ff2f"/>
<circle cx="774.00" cy="814.00" r="2.20" opacity="0.58" fill="#a7ff2f"/><circle cx="-82.00" cy="-98.00" r="1.60" opacity="0.58" fill="#a7ff2f"/>
<circle cx="-82.00" cy="382.00" r="1.60" opacity="0.58" fill="#a7ff2f"/>
<circle cx="-82.00" cy="862.00" r="1.60" opacity="0.58" fill="#a7ff2f"/>
<circle cx="398.00" cy="-98.00" r="1.60" opacity="0.58" fill="#a7ff2f"/>
<circle cx="398.00" cy="382.00" r="1.60" opacity="0.58" fill="#a7ff2f"/>
<circle cx="398.00" cy="862.00" r="1.60" opacity="0.58" fill="#a7ff2f"/>
<circle cx="878.00" cy="-98.00" r="1.60" opacity="0.58" fill="#a7ff2f"/>
<circle cx="878.00" cy="382.00" r="1.60" opacity="0.58" fill="#a7ff2f"/>
<circle cx="878.00" cy="862.00" r="1.60" opacity="0.58" fill="#a7ff2f"/><circle cx="-2.00" cy="-162.00" r="1.60" opacity="0.58" fill="#a7ff2f"/>
<circle cx="-2.00" cy="318.00" r="1.60" opacity="0.58" fill="#a7ff2f"/>
<circle cx="-2.00" cy="798.00" r="1.60" opacity="0.58" fill="#a7ff2f"/>
<circle cx="478.00" cy="-162.00" r="1.60" opacity="0.58" fill="#a7ff2f"/>
<circle cx="478.00" cy="318.00" r="1.60" opacity="0.58" fill="#a7ff2f"/>
<circle cx="478.00" cy="798.00" r="1.60" opacity="0.58" fill="#a7ff2f"/>
<circle cx="958.00" cy="-162.00" r="1.60" opacity="0.58" fill="#a7ff2f"/>
<circle cx="958.00" cy="318.00" r="1.60" opacity="0.58" fill="#a7ff2f"/>
<circle cx="958.00" cy="798.00" r="1.60" opacity="0.58" fill="#a7ff2f"/><circle cx="-452.00" cy="-278.00" r="2.20" opacity="0.58" fill="#23d8ff"/>
<circle cx="-452.00" cy="202.00" r="2.20" opacity="0.58" fill="#23d8ff"/>
<circle cx="-452.00" cy="682.00" r="2.20" opacity="0.58" fill="#23d8ff"/>
<circle cx="28.00" cy="-278.00" r="2.20" opacity="0.58" fill="#23d8ff"/>
<circle cx="28.00" cy="202.00" r="2.20" opacity="0.58" fill="#23d8ff"/>
<circle cx="28.00" cy="682.00" r="2.20" opacity="0.58" fill="#23d8ff"/>
<circle cx="508.00" cy="-278.00" r="2.20" opacity="0.58" fill="#23d8ff"/>
<circle cx="508.00" cy="202.00" r="2.20" opacity="0.58" fill="#23d8ff"/>
<circle cx="508.00" cy="682.00" r="2.20" opacity="0.58" fill="#23d8ff"/><circle cx="-368.00" cy="-334.00" r="1.60" opacity="0.58" fill="#23d8ff"/>
<circle cx="-368.00" cy="146.00" r="1.60" opacity="0.58" fill="#23d8ff"/>
<circle cx="-368.00" cy="626.00" r="1.60" opacity="0.58" fill="#23d8ff"/>
<circle cx="112.00" cy="-334.00" r="1.60" opacity="0.58" fill="#23d8ff"/>
<circle cx="112.00" cy="146.00" r="1.60" opacity="0.58" fill="#23d8ff"/>
<circle cx="112.00" cy="626.00" r="1.60" opacity="0.58" fill="#23d8ff"/>
<circle cx="592.00" cy="-334.00" r="1.60" opacity="0.58" fill="#23d8ff"/>
<circle cx="592.00" cy="146.00" r="1.60" opacity="0.58" fill="#23d8ff"/>
<circle cx="592.00" cy="626.00" r="1.60" opacity="0.58" fill="#23d8ff"/><circle cx="-282.00" cy="-284.00" r="1.60" opacity="0.58" fill="#23d8ff"/>
<circle cx="-282.00" cy="196.00" r="1.60" opacity="0.58" fill="#23d8ff"/>
<circle cx="-282.00" cy="676.00" r="1.60" opacity="0.58" fill="#23d8ff"/>
<circle cx="198.00" cy="-284.00" r="1.60" opacity="0.58" fill="#23d8ff"/>
<circle cx="198.00" cy="196.00" r="1.60" opacity="0.58" fill="#23d8ff"/>
<circle cx="198.00" cy="676.00" r="1.60" opacity="0.58" fill="#23d8ff"/>
<circle cx="678.00" cy="-284.00" r="1.60" opacity="0.58" fill="#23d8ff"/>
<circle cx="678.00" cy="196.00" r="1.60" opacity="0.58" fill="#23d8ff"/>
<circle cx="678.00" cy="676.00" r="1.60" opacity="0.58" fill="#23d8ff"/><circle cx="-194.00" cy="-344.00" r="2.20" opacity="0.58" fill="#23d8ff"/>
<circle cx="-194.00" cy="136.00" r="2.20" opacity="0.58" fill="#23d8ff"/>
<circle cx="-194.00" cy="616.00" r="2.20" opacity="0.58" fill="#23d8ff"/>
<circle cx="286.00" cy="-344.00" r="2.20" opacity="0.58" fill="#23d8ff"/>
<circle cx="286.00" cy="136.00" r="2.20" opacity="0.58" fill="#23d8ff"/>
<circle cx="286.00" cy="616.00" r="2.20" opacity="0.58" fill="#23d8ff"/>
<circle cx="766.00" cy="-344.00" r="2.20" opacity="0.58" fill="#23d8ff"/>
<circle cx="766.00" cy="136.00" r="2.20" opacity="0.58" fill="#23d8ff"/>
<circle cx="766.00" cy="616.00" r="2.20" opacity="0.58" fill="#23d8ff"/><circle cx="-100.00" cy="-302.00" r="1.60" opacity="0.58" fill="#23d8ff"/>
<circle cx="-100.00" cy="178.00" r="1.60" opacity="0.58" fill="#23d8ff"/>
<circle cx="-100.00" cy="658.00" r="1.60" opacity="0.58" fill="#23d8ff"/>
<circle cx="380.00" cy="-302.00" r="1.60" opacity="0.58" fill="#23d8ff"/>
<circle cx="380.00" cy="178.00" r="1.60" opacity="0.58" fill="#23d8ff"/>
<circle cx="380.00" cy="658.00" r="1.60" opacity="0.58" fill="#23d8ff"/>
<circle cx="860.00" cy="-302.00" r="1.60" opacity="0.58" fill="#23d8ff"/>
<circle cx="860.00" cy="178.00" r="1.60" opacity="0.58" fill="#23d8ff"/>
<circle cx="860.00" cy="658.00" r="1.60" opacity="0.58" fill="#23d8ff"/><circle cx="-22.00" cy="-358.00" r="1.60" opacity="0.58" fill="#23d8ff"/>
<circle cx="-22.00" cy="122.00" r="1.60" opacity="0.58" fill="#23d8ff"/>
<circle cx="-22.00" cy="602.00" r="1.60" opacity="0.58" fill="#23d8ff"/>
<circle cx="458.00" cy="-358.00" r="1.60" opacity="0.58" fill="#23d8ff"/>
<circle cx="458.00" cy="122.00" r="1.60" opacity="0.58" fill="#23d8ff"/>
<circle cx="458.00" cy="602.00" r="1.60" opacity="0.58" fill="#23d8ff"/>
<circle cx="938.00" cy="-358.00" r="1.60" opacity="0.58" fill="#23d8ff"/>
<circle cx="938.00" cy="122.00" r="1.60" opacity="0.58" fill="#23d8ff"/>
<circle cx="938.00" cy="602.00" r="1.60" opacity="0.58" fill="#23d8ff"/>
      <circle cx="5.89" cy="53.95" r="1.1" fill="#f4f4f4" opacity="0.18"/><circle cx="485.89" cy="53.95" r="1.1" fill="#f4f4f4" opacity="0.18"/><circle cx="456.13" cy="256.90" r="0.7" fill="#f4f4f4" opacity="0.46"/><circle cx="317.84" cy="65.56" r="1.4" fill="#a7ff2f" opacity="0.37"/><circle cx="98.37" cy="284.68" r="0.55" fill="#f4f4f4" opacity="0.54"/><circle cx="193.41" cy="95.28" r="0.85" fill="#f4f4f4" opacity="0.40"/><circle cx="118.35" cy="347.51" r="1.1" fill="#f4f4f4" opacity="0.38"/><circle cx="457.80" cy="402.57" r="0.85" fill="#f4f4f4" opacity="0.22"/><circle cx="382.11" cy="180.68" r="0.55" fill="#a7ff2f" opacity="0.51"/><circle cx="312.55" cy="104.81" r="1.1" fill="#a7ff2f" opacity="0.24"/><circle cx="307.62" cy="105.21" r="0.55" fill="#f4f4f4" opacity="0.28"/><circle cx="274.51" cy="231.28" r="0.85" fill="#23d8ff" opacity="0.55"/><circle cx="-3.12" cy="379.13" r="0.85" fill="#23d8ff" opacity="0.38"/><circle cx="476.88" cy="379.13" r="0.85" fill="#23d8ff" opacity="0.38"/><circle cx="449.26" cy="402.39" r="0.85" fill="#f4f4f4" opacity="0.24"/><circle cx="442.09" cy="288.67" r="0.55" fill="#a7ff2f" opacity="0.27"/><circle cx="146.68" cy="402.83" r="0.7" fill="#f4f4f4" opacity="0.24"/><circle cx="160.29" cy="193.41" r="0.55" fill="#f4f4f4" opacity="0.21"/><circle cx="47.46" cy="-8.16" r="0.55" fill="#23d8ff" opacity="0.24"/><circle cx="47.46" cy="471.84" r="0.55" fill="#23d8ff" opacity="0.24"/><circle cx="77.93" cy="-4.73" r="0.7" fill="#f4f4f4" opacity="0.36"/><circle cx="77.93" cy="475.27" r="0.7" fill="#f4f4f4" opacity="0.36"/><circle cx="378.45" cy="133.44" r="0.85" fill="#23d8ff" opacity="0.36"/><circle cx="283.53" cy="410.18" r="1.1" fill="#f4f4f4" opacity="0.45"/><circle cx="332.60" cy="467.11" r="0.55" fill="#f4f4f4" opacity="0.47"/><circle cx="-7.18" cy="167.37" r="0.55" fill="#f4f4f4" opacity="0.39"/><circle cx="472.82" cy="167.37" r="0.55" fill="#f4f4f4" opacity="0.39"/><circle cx="214.00" cy="-3.29" r="0.7" fill="#f4f4f4" opacity="0.51"/><circle cx="214.00" cy="476.71" r="0.7" fill="#f4f4f4" opacity="0.51"/><circle cx="23.99" cy="294.70" r="0.7" fill="#a7ff2f" opacity="0.54"/><circle cx="415.92" cy="330.87" r="1.4" fill="#f4f4f4" opacity="0.44"/><circle cx="251.70" cy="412.67" r="1.1" fill="#f4f4f4" opacity="0.24"/><circle cx="294.98" cy="148.07" r="1.1" fill="#f4f4f4" opacity="0.31"/><circle cx="250.86" cy="166.49" r="0.7" fill="#23d8ff" opacity="0.44"/><circle cx="278.28" cy="79.76" r="0.55" fill="#a7ff2f" opacity="0.24"/><circle cx="117.84" cy="423.59" r="0.7" fill="#f4f4f4" opacity="0.44"/><circle cx="259.95" cy="116.52" r="0.85" fill="#a7ff2f" opacity="0.49"/><circle cx="15.83" cy="295.06" r="0.85" fill="#f4f4f4" opacity="0.24"/><circle cx="390.66" cy="174.66" r="1.1" fill="#f4f4f4" opacity="0.34"/><circle cx="339.48" cy="115.20" r="0.85" fill="#f4f4f4" opacity="0.44"/><circle cx="176.76" cy="370.11" r="0.55" fill="#23d8ff" opacity="0.51"/><circle cx="332.93" cy="426.36" r="1.1" fill="#23d8ff" opacity="0.27"/><circle cx="87.15" cy="16.20" r="1.1" fill="#f4f4f4" opacity="0.48"/><circle cx="399.31" cy="-9.01" r="0.85" fill="#f4f4f4" opacity="0.46"/><circle cx="399.31" cy="470.99" r="0.85" fill="#f4f4f4" opacity="0.46"/><circle cx="144.22" cy="438.03" r="1.4" fill="#f4f4f4" opacity="0.52"/><circle cx="465.30" cy="114.74" r="0.7" fill="#23d8ff" opacity="0.38"/><circle cx="153.47" cy="46.08" r="1.4" fill="#a7ff2f" opacity="0.17"/><circle cx="435.00" cy="236.37" r="0.85" fill="#a7ff2f" opacity="0.37"/><circle cx="412.01" cy="148.13" r="1.1" fill="#f4f4f4" opacity="0.25"/><circle cx="425.52" cy="368.32" r="0.55" fill="#23d8ff" opacity="0.26"/><circle cx="338.80" cy="23.10" r="1.1" fill="#a7ff2f" opacity="0.29"/><circle cx="-8.06" cy="382.33" r="0.55" fill="#f4f4f4" opacity="0.45"/><circle cx="471.94" cy="382.33" r="0.55" fill="#f4f4f4" opacity="0.45"/><circle cx="364.93" cy="205.25" r="0.55" fill="#f4f4f4" opacity="0.48"/><circle cx="448.57" cy="108.18" r="1.1" fill="#f4f4f4" opacity="0.19"/><circle cx="236.87" cy="227.21" r="0.85" fill="#f4f4f4" opacity="0.35"/><circle cx="329.11" cy="432.36" r="0.85" fill="#f4f4f4" opacity="0.56"/><circle cx="223.30" cy="172.30" r="1.4" fill="#f4f4f4" opacity="0.51"/><circle cx="297.13" cy="97.05" r="0.7" fill="#23d8ff" opacity="0.43"/><circle cx="402.65" cy="18.64" r="1.1" fill="#f4f4f4" opacity="0.32"/><circle cx="391.97" cy="352.95" r="1.4" fill="#23d8ff" opacity="0.33"/><circle cx="266.93" cy="376.68" r="1.1" fill="#f4f4f4" opacity="0.51"/><circle cx="147.22" cy="340.40" r="0.7" fill="#f4f4f4" opacity="0.31"/><circle cx="109.72" cy="163.68" r="1.1" fill="#a7ff2f" opacity="0.49"/><circle cx="286.95" cy="393.97" r="1.1" fill="#f4f4f4" opacity="0.23"/><circle cx="108.53" cy="124.77" r="0.7" fill="#f4f4f4" opacity="0.50"/><circle cx="340.00" cy="148.91" r="1.1" fill="#f4f4f4" opacity="0.19"/><circle cx="45.36" cy="383.94" r="1.4" fill="#23d8ff" opacity="0.35"/><circle cx="68.77" cy="209.32" r="0.7" fill="#f4f4f4" opacity="0.40"/><circle cx="150.56" cy="406.40" r="1.4" fill="#f4f4f4" opacity="0.29"/><circle cx="331.16" cy="405.10" r="0.7" fill="#f4f4f4" opacity="0.40"/><circle cx="368.19" cy="126.62" r="1.4" fill="#f4f4f4" opacity="0.32"/><circle cx="211.87" cy="152.54" r="1.4" fill="#23d8ff" opacity="0.26"/><circle cx="35.91" cy="294.44" r="0.7" fill="#a7ff2f" opacity="0.22"/><circle cx="460.94" cy="346.10" r="0.7" fill="#f4f4f4" opacity="0.55"/><circle cx="82.71" cy="245.89" r="1.4" fill="#f4f4f4" opacity="0.32"/><circle cx="430.80" cy="395.22" r="0.85" fill="#f4f4f4" opacity="0.31"/><circle cx="366.00" cy="345.89" r="1.1" fill="#23d8ff" opacity="0.22"/><circle cx="339.75" cy="354.23" r="1.4" fill="#f4f4f4" opacity="0.54"/><circle cx="64.40" cy="439.58" r="1.4" fill="#f4f4f4" opacity="0.23"/><circle cx="47.07" cy="389.46" r="0.85" fill="#f4f4f4" opacity="0.26"/><circle cx="177.84" cy="199.28" r="1.4" fill="#f4f4f4" opacity="0.28"/><circle cx="394.17" cy="31.26" r="1.1" fill="#f4f4f4" opacity="0.28"/><circle cx="311.79" cy="165.16" r="1.4" fill="#f4f4f4" opacity="0.55"/><circle cx="413.67" cy="338.47" r="0.55" fill="#f4f4f4" opacity="0.26"/><circle cx="417.54" cy="291.02" r="0.85" fill="#f4f4f4" opacity="0.33"/><circle cx="-3.49" cy="311.03" r="0.85" fill="#a7ff2f" opacity="0.41"/><circle cx="476.51" cy="311.03" r="0.85" fill="#a7ff2f" opacity="0.41"/><circle cx="115.67" cy="102.90" r="0.55" fill="#f4f4f4" opacity="0.44"/><circle cx="311.94" cy="50.50" r="0.85" fill="#a7ff2f" opacity="0.36"/><circle cx="165.15" cy="77.04" r="1.1" fill="#a7ff2f" opacity="0.54"/><circle cx="133.16" cy="171.34" r="0.85" fill="#23d8ff" opacity="0.35"/><circle cx="343.77" cy="180.03" r="1.1" fill="#f4f4f4" opacity="0.38"/><circle cx="348.81" cy="7.89" r="1.4" fill="#f4f4f4" opacity="0.48"/><circle cx="348.81" cy="487.89" r="1.4" fill="#f4f4f4" opacity="0.48"/><circle cx="456.25" cy="226.59" r="0.55" fill="#f4f4f4" opacity="0.44"/><circle cx="455.49" cy="410.97" r="1.1" fill="#f4f4f4" opacity="0.37"/><circle cx="265.37" cy="0.43" r="1.4" fill="#a7ff2f" opacity="0.55"/><circle cx="265.37" cy="480.43" r="1.4" fill="#a7ff2f" opacity="0.55"/><circle cx="452.77" cy="135.26" r="1.1" fill="#f4f4f4" opacity="0.34"/><circle cx="76.22" cy="289.28" r="1.1" fill="#f4f4f4" opacity="0.36"/><circle cx="110.50" cy="286.90" r="1.4" fill="#f4f4f4" opacity="0.30"/><circle cx="125.00" cy="131.53" r="0.55" fill="#f4f4f4" opacity="0.32"/><circle cx="20.51" cy="322.47" r="0.55" fill="#f4f4f4" opacity="0.54"/><circle cx="224.35" cy="325.22" r="0.85" fill="#23d8ff" opacity="0.23"/><circle cx="163.03" cy="455.98" r="1.4" fill="#f4f4f4" opacity="0.27"/><circle cx="60.61" cy="73.31" r="1.4" fill="#f4f4f4" opacity="0.43"/><circle cx="233.64" cy="146.13" r="1.1" fill="#f4f4f4" opacity="0.20"/><circle cx="25.16" cy="273.15" r="1.4" fill="#23d8ff" opacity="0.18"/><circle cx="271.53" cy="73.66" r="0.55" fill="#f4f4f4" opacity="0.19"/><circle cx="30.84" cy="403.04" r="0.85" fill="#f4f4f4" opacity="0.49"/><circle cx="138.73" cy="58.70" r="0.85" fill="#23d8ff" opacity="0.56"/><circle cx="23.59" cy="79.22" r="1.1" fill="#23d8ff" opacity="0.51"/><circle cx="-0.04" cy="238.39" r="1.1" fill="#a7ff2f" opacity="0.52"/><circle cx="479.96" cy="238.39" r="1.1" fill="#a7ff2f" opacity="0.52"/><circle cx="270.67" cy="309.50" r="0.55" fill="#23d8ff" opacity="0.44"/><circle cx="397.85" cy="-1.92" r="1.4" fill="#f4f4f4" opacity="0.41"/><circle cx="397.85" cy="478.08" r="1.4" fill="#f4f4f4" opacity="0.41"/><circle cx="71.11" cy="218.19" r="0.7" fill="#f4f4f4" opacity="0.40"/><circle cx="418.92" cy="331.59" r="1.1" fill="#a7ff2f" opacity="0.31"/><circle cx="362.14" cy="231.31" r="1.4" fill="#a7ff2f" opacity="0.42"/><circle cx="289.85" cy="189.63" r="0.85" fill="#f4f4f4" opacity="0.38"/><circle cx="72.19" cy="0.86" r="0.7" fill="#23d8ff" opacity="0.26"/><circle cx="72.19" cy="480.86" r="0.7" fill="#23d8ff" opacity="0.26"/><circle cx="239.38" cy="357.42" r="0.7" fill="#a7ff2f" opacity="0.50"/><circle cx="385.07" cy="337.93" r="0.85" fill="#f4f4f4" opacity="0.51"/><circle cx="321.20" cy="190.76" r="0.85" fill="#23d8ff" opacity="0.37"/><circle cx="178.70" cy="425.87" r="0.7" fill="#f4f4f4" opacity="0.41"/><circle cx="203.37" cy="152.51" r="0.85" fill="#f4f4f4" opacity="0.54"/><circle cx="315.18" cy="372.35" r="0.7" fill="#f4f4f4" opacity="0.45"/><circle cx="414.30" cy="18.63" r="0.85" fill="#23d8ff" opacity="0.44"/><circle cx="246.95" cy="286.18" r="0.85" fill="#f4f4f4" opacity="0.54"/><circle cx="208.94" cy="283.44" r="1.4" fill="#23d8ff" opacity="0.39"/>
    </g>

    <g fill="none" stroke-linecap="round">
      <path d="M24 24 h34 M24 24 v34" stroke="#a7ff2f" stroke-width="1.05" opacity="0.34"/>
      <path d="M456 456 h-34 M456 456 v-34" stroke="#23d8ff" stroke-width="1.05" opacity="0.34"/>
      <path d="M224 24 h32 M224 456 h32 M24 224 v32 M456 224 v32" stroke="#f4f4f4" stroke-width="0.75" opacity="0.16"/>
    </g>
  </pattern>
</defs>

<rect width="480" height="480" fill="url(#tile)"/>
</svg>